# xmcd
#
# Track frame offsets: 
#        150
#        33947
#        50007
#        82797
#        99851
#        130190
#        152318
#        182925
#        202713
#        228771
#        250205
#
# Disc length: 3619 seconds
#
# Revision: 0
# Processed by: cddbd v1.5PL3 Copyright (c) Steve Scherf et al.
# Submitted via: ExactAudioCopy v0.95a4
#
DISCID=750e210b
DTITLE=Nap :Don't Forget the Blues" Turner - Live At City Blues
DYEAR=1998
DGENRE=Blues
TTITLE0=Going Down Slow
TTITLE1=Walking On A Tightrope
TTITLE2=Good Morning Blues
TTITLE3=Street Walking Woman
TTITLE4=Highway's Like A Woman
TTITLE5=Painful Party
TTITLE6=Love And The Married Woman
TTITLE7=The Hunt Is on
TTITLE8=Room With A View
TTITLE9=Baby What You Want Me To Do
TTITLE10=Wedding Pledge
EXTD=
EXTT0=
EXTT1=
EXTT2=
EXTT3=
EXTT4=
EXTT5=
EXTT6=
EXTT7=
EXTT8=
EXTT9=
EXTT10=
PLAYORDER=
